<svg width="427" height="462" viewBox="0 0 427 462"
     xmlns="http://www.w3.org/2000/svg"
     fill="black"
     stroke="black"
     stroke-width="5"
     stroke-linejoin="round">
<path fill-rule="evenodd" clip-rule="evenodd" d="M183.395 462L168.217 457.586L164.423 452.436L162.905 370.041L157.593 366.363H121.166L109.024 363.42L93.087 352.385L87.0158 339.143V311.188L77.9091 296.475L80.9447 286.175V267.048L78.668 264.841L60.4545 263.369L48.3123 257.484L44.5178 252.334L43 242.035L55.1423 217.022L82.4624 178.768L83.9802 174.354L74.8735 165.525V146.398L90.0514 89.0159L102.194 61.0605L124.202 33.8408L151.522 17.6561L200.091 4.41401L244.107 0H268.391L298.747 4.41401L335.174 19.1274L354.905 32.3694L376.913 53.7038L404.233 91.9586L420.929 133.156L425.482 155.226L427 202.309L423.964 221.436L407.269 268.519L387.538 300.889L373.877 336.201L367.806 378.869V425.952L365.53 428.159L351.87 425.217L351.111 368.57L354.146 342.086L370.842 296.475L401.198 240.564L408.787 209.666V153.755L398.162 118.443L384.502 91.9586L360.217 61.0605L336.692 39.7261L312.407 26.4841L282.051 17.6561H230.447L178.842 26.4841L151.522 36.7834L124.96 58.1178L108.265 87.5446L91.5692 152.283L104.47 166.261H121.166L124.96 168.468L126.478 174.354L121.166 179.503L101.435 180.975L97.6403 184.653L62.7312 242.035L69.5613 247.185L87.7747 248.656L93.8458 251.599L100.676 262.634V286.175L97.6403 289.118V295.003L105.229 308.245L102.194 325.901L105.229 337.672L112.059 344.293L122.684 348.707L165.182 350.178L171.253 351.65L176.565 356.799L179.601 361.213V439.194L181.877 442.873L307.854 414.917L310.13 412.71V320.016L319.237 325.901L323.79 339.143L325.308 424.481L323.032 426.688L298.747 432.573L295.711 435.516H286.605L183.395 462Z" fill="black"/>
<path fill-rule="evenodd" clip-rule="evenodd" d="M236.518 98.5796H221.34L211.474 89.0159V74.3026L224.375 64.7389L239.553 67.6815L248.66 77.9809H307.854L315.443 70.6242L329.103 67.6815L335.933 71.3599L342.004 81.6592L338.968 89.0159L330.621 95.6369L318.478 92.6943L310.889 86.8089H250.178L236.518 98.5796Z" fill="black"/>
<path fill-rule="evenodd" clip-rule="evenodd" d="M329.103 320.752H324.549L320.755 314.131L348.075 267.048L370.842 219.965L375.395 203.78L373.878 178.768L358.7 149.341L347.316 138.306L297.229 136.834L283.569 148.605H268.391L258.526 140.513L257.008 127.271L263.838 117.707L271.427 114.764L286.605 117.707L295.711 128.006H351.87L359.459 130.949L372.36 144.927L387.538 180.239V209.666L379.949 234.678L342.004 305.303L329.103 320.752Z" fill="black"/>
<path fill-rule="evenodd" clip-rule="evenodd" d="M327.585 201.573L315.443 198.631L307.854 191.274H216.787L203.126 201.573H189.466L181.119 194.952L178.083 183.182L186.431 170.675L195.538 167.732L207.68 170.675L218.304 180.975H304.818L316.96 170.675L327.585 169.204L338.968 177.296L342.004 184.653L335.933 196.424L327.585 201.573Z" fill="black"/>
<path fill-rule="evenodd" clip-rule="evenodd" d="M307.854 307.51L302.542 299.417V290.589L317.719 246.449L316.202 243.506L312.407 241.299H269.909L256.249 253.07H244.107L235.759 247.92L231.206 237.621L234.241 227.322L239.553 222.172L254.731 219.229L269.909 231H329.103L335.933 233.207V242.035L311.648 289.118L307.854 307.51Z" fill="black"/>
</svg>
